<svg xmlns="http://www.w3.org/2000/svg" version="1.1" xmlns:xlink="http://www.w3.org/1999/xlink" xmlns:svgjs="http://svgjs.dev/svgjs" viewBox="0 0 36.37775158358389 5.894029898535337"><g transform="matrix(1,0,0,1,6.080969185624563,1.202796199267669)"><g><path d=" M 0.0915 1.0709999999999997 L 0.0915 0.005999999999999783 L 0.384 0.005999999999999783 L 0.384 0.4109999999999997 L 0.708 0.005999999999999783 L 1.038 0.005999999999999783 L 0.651 0.48299999999999976 L 1.065 1.0709999999999997 L 0.729 1.0709999999999997 L 0.465 0.6794999999999998 L 0.384 0.7634999999999997 L 0.384 1.0709999999999997 L 0.0915 1.0709999999999997 M 1.546458984375 1.0799999999999996 Q 1.424958984375 1.0799999999999996 1.325958984375 1.0342499999999997 Q 1.226958984375 0.9884999999999997 1.155708984375 0.9112499999999997 Q 1.0844589843749999 0.8339999999999997 1.046208984375 0.7372499999999997 Q 1.0079589843749999 0.6404999999999997 1.0079589843749999 0.5369999999999997 Q 1.0079589843749999 0.43049999999999977 1.0484589843749998 0.3344999999999997 Q 1.088958984375 0.2384999999999997 1.161708984375 0.16274999999999973 Q 1.234458984375 0.08699999999999974 1.334208984375 0.04349999999999965 Q 1.433958984375 -2.220446049250313e-16 1.5524589843749999 -2.220446049250313e-16 Q 1.673958984375 -2.220446049250313e-16 1.772958984375 0.045749999999999735 Q 1.871958984375 0.09149999999999969 1.942458984375 0.16949999999999976 Q 2.012958984375 0.24749999999999972 2.051208984375 0.3442499999999997 Q 2.0894589843749998 0.4409999999999997 2.0894589843749998 0.5429999999999997 Q 2.0894589843749998 0.6479999999999997 2.049708984375 0.7439999999999998 Q 2.009958984375 0.8399999999999997 1.937208984375 0.9157499999999997 Q 1.8644589843750001 0.9914999999999997 1.765458984375 1.0357499999999997 Q 1.666458984375 1.0799999999999996 1.546458984375 1.0799999999999996 M 1.304958984375 0.5399999999999997 Q 1.304958984375 0.5939999999999996 1.319958984375 0.6442499999999998 Q 1.334958984375 0.6944999999999997 1.3649589843749999 0.7342499999999997 Q 1.3949589843749999 0.7739999999999998 1.440708984375 0.7972499999999998 Q 1.486458984375 0.8204999999999998 1.549458984375 0.8204999999999998 Q 1.612458984375 0.8204999999999998 1.658958984375 0.7964999999999998 Q 1.7054589843749999 0.7724999999999997 1.734708984375 0.7312499999999997 Q 1.7639589843749999 0.6899999999999997 1.778208984375 0.6397499999999997 Q 1.792458984375 0.5894999999999997 1.792458984375 0.5369999999999997 Q 1.792458984375 0.48299999999999976 1.777458984375 0.43349999999999966 Q 1.7624589843749998 0.3839999999999997 1.732458984375 0.3442499999999997 Q 1.702458984375 0.30449999999999966 1.655958984375 0.2819999999999997 Q 1.609458984375 0.25949999999999973 1.5479589843750001 0.25949999999999973 Q 1.484958984375 0.25949999999999973 1.439208984375 0.28349999999999975 Q 1.393458984375 0.30749999999999966 1.363458984375 0.3472499999999997 Q 1.333458984375 0.3869999999999997 1.319208984375 0.4372499999999997 Q 1.304958984375 0.4874999999999997 1.304958984375 0.5399999999999997 M 2.51098095703125 0.5474999999999998 L 2.51098095703125 1.0709999999999997 L 2.21848095703125 1.0709999999999997 L 2.21848095703125 0.005999999999999783 L 2.44648095703125 0.005999999999999783 L 2.87398095703125 0.5474999999999998 L 2.87398095703125 0.005999999999999783 L 3.1664809570312498 0.005999999999999783 L 3.1664809570312498 1.0709999999999997 L 2.93398095703125 1.0709999999999997 L 2.51098095703125 0.5474999999999998 M 3.6000234374999995 0.005999999999999783 L 3.9270234374999995 0.005999999999999783 L 4.2660234374999995 1.0709999999999997 L 3.9690234374999998 1.0709999999999997 L 3.9045234374999995 0.8624999999999997 L 3.6210234374999994 0.8624999999999997 L 3.5580234374999997 1.0709999999999997 L 3.2595234374999995 1.0709999999999997 L 3.6000234374999995 0.005999999999999783 M 3.8580234374999995 0.6674999999999998 L 3.7635234374999995 0.29249999999999976 L 3.6645234374999998 0.6674999999999998 L 3.8580234374999995 0.6674999999999998 M 4.35901171875 1.0709999999999997 L 4.35901171875 0.005999999999999783 L 4.65151171875 0.005999999999999783 L 4.65151171875 0.4109999999999997 L 4.97551171875 0.005999999999999783 L 5.30551171875 0.005999999999999783 L 4.91851171875 0.48299999999999976 L 5.33251171875 1.0709999999999997 L 4.99651171875 1.0709999999999997 L 4.73251171875 0.6794999999999998 L 4.65151171875 0.7634999999999997 L 4.65151171875 1.0709999999999997 L 4.35901171875 1.0709999999999997 M 5.72244287109375 1.0709999999999997 L 5.72244287109375 0.005999999999999783 L 6.45294287109375 0.005999999999999783 L 6.45294287109375 0.2609999999999997 L 6.0149428710937505 0.2609999999999997 L 6.0149428710937505 0.4379999999999997 L 6.37194287109375 0.4379999999999997 L 6.37194287109375 0.6749999999999997 L 6.0149428710937505 0.6749999999999997 L 6.0149428710937505 1.0709999999999997 L 5.72244287109375 1.0709999999999997 M 6.748394531250001 0.005999999999999783 L 7.075394531250001 0.005999999999999783 L 7.41439453125 1.0709999999999997 L 7.11739453125 1.0709999999999997 L 7.052894531250001 0.8624999999999997 L 6.769394531250001 0.8624999999999997 L 6.70639453125 1.0709999999999997 L 6.40789453125 1.0709999999999997 L 6.748394531250001 0.005999999999999783 M 7.006394531250001 0.6674999999999998 L 6.911894531250001 0.29249999999999976 L 6.81289453125 0.6674999999999998 L 7.006394531250001 0.6674999999999998 M 7.405395263671876 0.5294999999999997 Q 7.405395263671876 0.4319999999999997 7.4421452636718755 0.3382499999999997 Q 7.478895263671875 0.24449999999999972 7.549395263671875 0.1679999999999997 Q 7.619895263671875 0.09149999999999969 7.721145263671875 0.045749999999999735 Q 7.822395263671876 -2.220446049250313e-16 7.949895263671875 -2.220446049250313e-16 Q 8.102895263671876 -2.220446049250313e-16 8.216895263671876 0.06374999999999975 Q 8.330895263671875 0.12749999999999972 8.386395263671876 0.2324999999999997 L 8.162895263671876 0.39149999999999974 Q 8.143395263671875 0.33899999999999975 8.106645263671876 0.31049999999999967 Q 8.069895263671876 0.2819999999999997 8.027145263671876 0.2707499999999997 Q 7.984395263671876 0.25949999999999973 7.943895263671876 0.25949999999999973 Q 7.880895263671875 0.25949999999999973 7.835145263671875 0.28424999999999967 Q 7.789395263671875 0.3089999999999997 7.760145263671875 0.3494999999999997 Q 7.730895263671876 0.3899999999999997 7.716645263671875 0.43949999999999967 Q 7.7023952636718755 0.48899999999999977 7.7023952636718755 0.5384999999999998 Q 7.7023952636718755 0.5939999999999996 7.718895263671875 0.6449999999999998 Q 7.735395263671876 0.6959999999999997 7.766895263671875 0.7357499999999997 Q 7.798395263671876 0.7754999999999997 7.844145263671876 0.7979999999999997 Q 7.8898952636718755 0.8204999999999998 7.946895263671875 0.8204999999999998 Q 7.987395263671876 0.8204999999999998 8.029395263671876 0.8077499999999997 Q 8.071395263671876 0.7949999999999997 8.105895263671876 0.7664999999999997 Q 8.140395263671875 0.7379999999999998 8.158395263671876 0.6899999999999997 L 8.396895263671876 0.8324999999999997 Q 8.365395263671875 0.9104999999999998 8.291895263671876 0.9659999999999997 Q 8.218395263671875 1.0214999999999996 8.125395263671875 1.0507499999999996 Q 8.032395263671875 1.0799999999999996 7.940895263671876 1.0799999999999996 Q 7.822395263671876 1.0799999999999996 7.7241452636718755 1.0327499999999998 Q 7.625895263671875 0.9854999999999997 7.554645263671875 0.9067499999999997 Q 7.483395263671875 0.8279999999999997 7.4443952636718755 0.7297499999999997 Q 7.405395263671876 0.6314999999999997 7.405395263671876 0.5294999999999997 M 8.50486376953125 1.0709999999999997 L 8.50486376953125 0.005999999999999783 L 8.79736376953125 0.005999999999999783 L 8.79736376953125 1.0709999999999997 L 8.50486376953125 1.0709999999999997 M 8.984888671875 1.0709999999999997 L 8.984888671875 0.005999999999999783 L 9.277388671875 0.005999999999999783 L 9.277388671875 0.8159999999999997 L 9.760388671874999 0.8159999999999997 L 9.760388671874999 1.0709999999999997 L 8.984888671875 1.0709999999999997 M 9.866921630859375 1.0709999999999997 L 9.866921630859375 0.005999999999999783 L 10.159421630859375 0.005999999999999783 L 10.159421630859375 1.0709999999999997 L 9.866921630859375 1.0709999999999997 M 11.176446533203125 0.2609999999999997 L 10.870446533203125 0.2609999999999997 L 10.870446533203125 1.0709999999999997 L 10.577946533203125 1.0709999999999997 L 10.577946533203125 0.2609999999999997 L 10.270446533203126 0.2609999999999997 L 10.270446533203126 0.005999999999999783 L 11.176446533203125 0.005999999999999783 L 11.176446533203125 0.2609999999999997 M 11.503481689453125 0.005999999999999783 L 11.693981689453125 0.4409999999999997 L 11.888981689453125 0.005999999999999783 L 12.206981689453126 0.005999999999999783 L 11.839481689453125 0.7184999999999997 L 11.839481689453125 1.0709999999999997 L 11.548481689453125 1.0709999999999997 L 11.548481689453125 0.7154999999999998 L 11.186981689453125 0.005999999999999783 L 11.503481689453125 0.005999999999999783 M 0.897 2.6025 L 0.897 2.0415 L 0.7185 2.436 L 0.5625 2.436 L 0.384 2.0415 L 0.384 2.6025 L 0.0915 2.6025 L 0.0915 1.5375 L 0.41100000000000003 1.5375 L 0.6405 2.0385 L 0.8715 1.5375 L 1.1895 1.5375 L 1.1895 2.6025 L 0.897 2.6025 M 1.623005859375 1.5375 L 1.950005859375 1.5375 L 2.289005859375 2.6025 L 1.9920058593749999 2.6025 L 1.927505859375 2.394 L 1.644005859375 2.394 L 1.5810058593749998 2.6025 L 1.282505859375 2.6025 L 1.623005859375 1.5375 M 1.881005859375 2.199 L 1.786505859375 1.824 L 1.6875058593749999 2.199 L 1.881005859375 2.199 M 2.674494140625 2.079 L 2.674494140625 2.6025 L 2.381994140625 2.6025 L 2.381994140625 1.5375 L 2.609994140625 1.5375 L 3.037494140625 2.079 L 3.037494140625 1.5375 L 3.3299941406249998 1.5375 L 3.3299941406249998 2.6025 L 3.097494140625 2.6025 L 2.674494140625 2.079 M 3.7635366210937495 1.5375 L 4.09053662109375 1.5375 L 4.4295366210937495 2.6025 L 4.13253662109375 2.6025 L 4.06803662109375 2.394 L 3.7845366210937494 2.394 L 3.7215366210937497 2.6025 L 3.4230366210937495 2.6025 L 3.7635366210937495 1.5375 M 4.02153662109375 2.199 L 3.9270366210937495 1.824 L 3.8280366210937498 2.199 L 4.02153662109375 2.199 M 4.939537353515625 2.61 Q 4.836037353515625 2.61 4.742287353515625 2.57325 Q 4.648537353515625 2.5365 4.576537353515625 2.46525 Q 4.504537353515625 2.394 4.463287353515625 2.29275 Q 4.422037353515625 2.1915 4.422037353515625 2.061 Q 4.422037353515625 1.9485000000000001 4.464037353515625 1.8525 Q 4.506037353515625 1.7565 4.580287353515625 1.6837499999999999 Q 4.654537353515625 1.611 4.7535373535156245 1.5705 Q 4.852537353515625 1.53 4.968037353515625 1.53 Q 5.112037353515625 1.53 5.229037353515625 1.59225 Q 5.346037353515625 1.6545 5.403037353515625 1.7625000000000002 L 5.185537353515625 1.929 Q 5.1540373535156245 1.866 5.091037353515625 1.82775 Q 5.028037353515625 1.7894999999999999 4.957537353515625 1.7894999999999999 Q 4.905037353515625 1.7894999999999999 4.861537353515625 1.8105 Q 4.818037353515625 1.8315000000000001 4.785787353515625 1.869 Q 4.7535373535156245 1.9064999999999999 4.736287353515625 1.95825 Q 4.719037353515625 2.01 4.719037353515625 2.0715 Q 4.719037353515625 2.1345 4.737037353515625 2.1855 Q 4.7550373535156245 2.2365 4.787287353515625 2.27325 Q 4.819537353515625 2.31 4.864537353515625 2.33025 Q 4.909537353515625 2.3505000000000003 4.9650373535156245 2.3505000000000003 Q 5.0355373535156245 2.3505000000000003 5.100037353515625 2.31525 Q 5.164537353515625 2.2800000000000002 5.217037353515625 2.2155 L 5.217037353515625 2.5005 Q 5.097037353515625 2.61 4.939537353515625 2.61 M 5.202037353515625 2.2455 L 5.005537353515625 2.2455 L 5.005537353515625 2.0355 L 5.443537353515625 2.0355 L 5.443537353515625 2.6025 L 5.202037353515625 2.6025 L 5.202037353515625 2.2455 M 6.351057861328125 2.3475 L 6.351057861328125 2.6025 L 5.592057861328125 2.6025 L 5.592057861328125 1.5375 L 6.337557861328125 1.5375 L 6.337557861328125 1.7925 L 5.884557861328125 1.7925 L 5.884557861328125 1.9425 L 6.271557861328125 1.9425 L 6.271557861328125 2.1795 L 5.884557861328125 2.1795 L 5.884557861328125 2.3475 L 6.351057861328125 2.3475 M 7.29753515625 2.6025 L 7.29753515625 2.0415 L 7.11903515625 2.436 L 6.96303515625 2.436 L 6.7845351562500005 2.0415 L 6.7845351562500005 2.6025 L 6.49203515625 2.6025 L 6.49203515625 1.5375 L 6.811535156250001 1.5375 L 7.04103515625 2.0385 L 7.27203515625 1.5375 L 7.59003515625 1.5375 L 7.59003515625 2.6025 L 7.29753515625 2.6025 M 8.536541015625 2.3475 L 8.536541015625 2.6025 L 7.777541015625 2.6025 L 7.777541015625 1.5375 L 8.523041015625001 1.5375 L 8.523041015625001 1.7925 L 8.070041015625 1.7925 L 8.070041015625 1.9425 L 8.457041015625 1.9425 L 8.457041015625 2.1795 L 8.070041015625 2.1795 L 8.070041015625 2.3475 L 8.536541015625 2.3475 M 8.970018310546875 2.079 L 8.970018310546875 2.6025 L 8.677518310546875 2.6025 L 8.677518310546875 1.5375 L 8.905518310546874 1.5375 L 9.333018310546874 2.079 L 9.333018310546874 1.5375 L 9.625518310546875 1.5375 L 9.625518310546875 2.6025 L 9.393018310546875 2.6025 L 8.970018310546875 2.079 M 10.642560791015624 1.7925 L 10.336560791015625 1.7925 L 10.336560791015625 2.6025 L 10.044060791015625 2.6025 L 10.044060791015625 1.7925 L 9.736560791015625 1.7925 L 9.736560791015625 1.5375 L 10.642560791015624 1.5375 L 10.642560791015624 1.7925" fill="#337551" fill-rule="nonzero"></path></g><g><path d=" M 0.06675 3.4884375 L 0.06675 2.9559375 L 0.28725 2.9559375 Q 0.32175 2.9559375 0.350625 2.9701874999999998 Q 0.3795 2.9844375 0.4005 3.0088125 Q 0.4215 3.0331875 0.4335 3.0628124999999997 Q 0.4455 3.0924375 0.4455 3.1231875 Q 0.4455 3.1666875 0.426375 3.2053125 Q 0.40725 3.2439375 0.37275 3.2679375 Q 0.33825 3.2919375 0.29175 3.2919375 L 0.11925000000000001 3.2919375 L 0.11925000000000001 3.4884375 L 0.06675 3.4884375 M 0.11925000000000001 3.2454375 L 0.2895 3.2454375 Q 0.321 3.2454375 0.34425 3.2281874999999998 Q 0.3675 3.2109375 0.38025000000000003 3.1831875 Q 0.393 3.1554374999999997 0.393 3.1231875 Q 0.393 3.0901875 0.378 3.0624374999999997 Q 0.363 3.0346875 0.338625 3.0185625 Q 0.31425000000000003 3.0024375 0.28500000000000003 3.0024375 L 0.11925000000000001 3.0024375 L 0.11925000000000001 3.2454375 M 0.8921319580078124 3.4419375 L 0.8921319580078124 3.4884375 L 0.5343819580078124 3.4884375 L 0.5343819580078124 2.9559375 L 0.8853819580078124 2.9559375 L 0.8853819580078124 3.0024375 L 0.5868819580078124 3.0024375 L 0.5868819580078124 3.1944375 L 0.8471319580078125 3.1944375 L 0.8471319580078125 3.2386874999999997 L 0.5868819580078124 3.2386874999999997 L 0.5868819580078124 3.4419375 L 0.8921319580078124 3.4419375 M 0.9922635498046873 3.4884375 L 0.9922635498046873 2.9559375 L 1.2172635498046873 2.9559375 Q 1.2517635498046873 2.9559375 1.2802635498046873 2.9701874999999998 Q 1.3087635498046875 2.9844375 1.3301385498046874 3.0088125 Q 1.3515135498046873 3.0331875 1.3631385498046873 3.0628124999999997 Q 1.3747635498046873 3.0924375 1.3747635498046873 3.1231875 Q 1.3747635498046873 3.1614375 1.3601385498046874 3.1951875 Q 1.3455135498046873 3.2289375 1.3188885498046874 3.2521875 Q 1.2922635498046873 3.2754375 1.2562635498046872 3.2829375 L 1.3867635498046873 3.4884375 L 1.3275135498046873 3.4884375 L 1.2022635498046874 3.2919375 L 1.0447635498046874 3.2919375 L 1.0447635498046874 3.4884375 L 0.9922635498046873 3.4884375 M 1.0447635498046874 3.2454375 L 1.2187635498046874 3.2454375 Q 1.2502635498046875 3.2454375 1.2735135498046875 3.2281874999999998 Q 1.2967635498046874 3.2109375 1.3095135498046875 3.1828125 Q 1.3222635498046873 3.1546874999999996 1.3222635498046873 3.1231875 Q 1.3222635498046873 3.0909375 1.3076385498046874 3.0635624999999997 Q 1.2930135498046873 3.0361875 1.2686385498046873 3.0193125 Q 1.2442635498046875 3.0024375 1.2142635498046874 3.0024375 L 1.0447635498046874 3.0024375 L 1.0447635498046874 3.2454375 M 1.4831499023437498 3.4884375 L 1.4831499023437498 2.9559375 L 1.8326499023437497 2.9559375 L 1.8326499023437497 3.0024375 L 1.5356499023437498 3.0024375 L 1.5356499023437498 3.1981875 L 1.7861499023437497 3.1981875 L 1.7861499023437497 3.2416875 L 1.5356499023437498 3.2416875 L 1.5356499023437498 3.4884375 L 1.4831499023437498 3.4884375 M 2.283766845703125 3.4419375 L 2.283766845703125 3.4884375 L 1.9260168457031248 3.4884375 L 1.9260168457031248 2.9559375 L 2.2770168457031246 2.9559375 L 2.2770168457031246 3.0024375 L 1.9785168457031248 3.0024375 L 1.9785168457031248 3.1944375 L 2.238766845703125 3.1944375 L 2.238766845703125 3.2386874999999997 L 1.9785168457031248 3.2386874999999997 L 1.9785168457031248 3.4419375 L 2.283766845703125 3.4419375 M 2.3838984374999996 3.4884375 L 2.3838984374999996 2.9566874999999997 L 2.4363984375 2.9566874999999997 L 2.4363984375 3.2656875 L 2.7296484375 2.9559375 L 2.7873984375 2.9559375 L 2.5698984375 3.1899375 L 2.7986484375 3.4884375 L 2.7393984375 3.4884375 L 2.5361484374999996 3.2214375 L 2.4363984375 3.3249375 L 2.4363984375 3.4884375 L 2.3838984374999996 3.4884375 M 3.2452774658203123 3.0024375 L 3.055527465820312 3.0024375 L 3.055527465820312 3.4884375 L 3.0030274658203124 3.4884375 L 3.0030274658203124 3.0024375 L 2.8132774658203124 3.0024375 L 2.8132774658203124 2.9559375 L 3.2452774658203123 2.9559375 L 3.2452774658203123 3.0024375 M 3.6836414794921875 3.4419375 L 3.6836414794921875 3.4884375 L 3.325891479492187 3.4884375 L 3.325891479492187 2.9559375 L 3.676891479492187 2.9559375 L 3.676891479492187 3.0024375 L 3.3783914794921874 3.0024375 L 3.3783914794921874 3.1944375 L 3.6386414794921875 3.1944375 L 3.6386414794921875 3.2386874999999997 L 3.3783914794921874 3.2386874999999997 L 3.3783914794921874 3.4419375 L 3.6836414794921875 3.4419375 M 3.9761517333984373 3.4884375 L 3.9761517333984373 2.9559375 L 4.196651733398437 2.9559375 Q 4.231151733398438 2.9559375 4.260026733398438 2.9701874999999998 Q 4.288901733398437 2.9844375 4.309901733398437 3.0088125 Q 4.330901733398438 3.0331875 4.342901733398437 3.0628124999999997 Q 4.354901733398437 3.0924375 4.354901733398437 3.1231875 Q 4.354901733398437 3.1666875 4.335776733398437 3.2053125 Q 4.316651733398437 3.2439375 4.282151733398438 3.2679375 Q 4.247651733398437 3.2919375 4.201151733398437 3.2919375 L 4.028651733398437 3.2919375 L 4.028651733398437 3.4884375 L 3.9761517333984373 3.4884375 M 4.028651733398437 3.2454375 L 4.198901733398437 3.2454375 Q 4.230401733398438 3.2454375 4.253651733398438 3.2281874999999998 Q 4.276901733398438 3.2109375 4.289651733398437 3.1831875 Q 4.302401733398438 3.1554374999999997 4.302401733398438 3.1231875 Q 4.302401733398438 3.0901875 4.287401733398437 3.0624374999999997 Q 4.272401733398437 3.0346875 4.248026733398437 3.0185625 Q 4.223651733398437 3.0024375 4.194401733398437 3.0024375 L 4.028651733398437 3.0024375 L 4.028651733398437 3.2454375 M 4.443783691406249 3.4884375 L 4.443783691406249 2.9559375 L 4.793283691406249 2.9559375 L 4.793283691406249 3.0024375 L 4.49628369140625 3.0024375 L 4.49628369140625 3.1981875 L 4.746783691406249 3.1981875 L 4.746783691406249 3.2416875 L 4.49628369140625 3.2416875 L 4.49628369140625 3.4884375 L 4.443783691406249 3.4884375 M 4.8866506347656244 3.4884375 L 4.8866506347656244 2.9559375 L 4.939150634765625 2.9559375 L 4.939150634765625 3.4419375 L 5.246650634765625 3.4419375 L 5.246650634765625 3.4884375 L 4.8866506347656244 3.4884375 M 5.682781494140625 3.4419375 L 5.682781494140625 3.4884375 L 5.3250314941406245 3.4884375 L 5.3250314941406245 2.9559375 L 5.6760314941406245 2.9559375 L 5.6760314941406245 3.0024375 L 5.377531494140625 3.0024375 L 5.377531494140625 3.1944375 L 5.637781494140625 3.1944375 L 5.637781494140625 3.2386874999999997 L 5.377531494140625 3.2386874999999997 L 5.377531494140625 3.4419375 L 5.682781494140625 3.4419375 M 5.986180297851562 3.4921875 Q 5.932930297851562 3.4921875 5.887180297851562 3.4693125 Q 5.841430297851562 3.4464375 5.8076802978515625 3.4074375 Q 5.773930297851562 3.3684374999999998 5.755555297851562 3.3204374999999997 Q 5.7371802978515625 3.2724374999999997 5.7371802978515625 3.2214375 Q 5.7371802978515625 3.1674374999999997 5.755555297851562 3.1190625 Q 5.773930297851562 3.0706875 5.8069302978515625 3.0331875 Q 5.839930297851562 2.9956875 5.884930297851562 2.9739375 Q 5.929930297851562 2.9521875 5.983180297851562 2.9521875 Q 6.061930297851562 2.9521875 6.111430297851562 2.9844375 Q 6.1609302978515625 3.0166874999999997 6.186430297851562 3.0684375 L 6.145930297851562 3.0954375 Q 6.120430297851562 3.0459375 6.077680297851562 3.0226875 Q 6.034930297851562 2.9994375 5.982430297851562 2.9994375 Q 5.938180297851562 2.9994375 5.9025552978515625 3.0181875 Q 5.866930297851562 3.0369374999999996 5.841430297851562 3.0684375 Q 5.815930297851562 3.0999375 5.802805297851562 3.1396875 Q 5.789680297851562 3.1794374999999997 5.789680297851562 3.2221875 Q 5.789680297851562 3.2671875 5.804680297851562 3.3073124999999997 Q 5.819680297851562 3.3474375 5.847430297851562 3.3785624999999997 Q 5.875180297851562 3.4096875 5.911555297851562 3.4273124999999998 Q 5.9479302978515625 3.4449375 5.989930297851562 3.4449375 Q 6.038680297851562 3.4449375 6.082180297851562 3.4205625 Q 6.125680297851562 3.3961875 6.165430297851562 3.3451874999999998 L 6.165430297851562 3.4006874999999996 Q 6.0896802978515625 3.4921875 5.986180297851562 3.4921875 M 6.157180297851562 3.2671875 L 6.038680297851562 3.2671875 L 6.038680297851562 3.2266874999999997 L 6.201430297851562 3.2266874999999997 L 6.201430297851562 3.4884375 L 6.157180297851562 3.4884375 L 6.157180297851562 3.2671875 M 6.668307861328125 3.4419375 L 6.668307861328125 3.4884375 L 6.310557861328125 3.4884375 L 6.310557861328125 2.9559375 L 6.6615578613281246 2.9559375 L 6.6615578613281246 3.0024375 L 6.363057861328125 3.0024375 L 6.363057861328125 3.1944375 L 6.623307861328125 3.1944375 L 6.623307861328125 3.2386874999999997 L 6.363057861328125 3.2386874999999997 L 6.363057861328125 3.4419375 L 6.668307861328125 3.4419375 M 6.7661894531249995 3.5491875 L 6.778939453125 3.4861874999999998 L 6.761689453124999 3.4861874999999998 L 6.761689453124999 3.4149374999999997 L 6.8111894531249995 3.4149374999999997 L 6.8111894531249995 3.4861874999999998 L 6.792439453125 3.5491875 L 6.7661894531249995 3.5491875 M 7.1306748046875 3.4884375 L 7.1306748046875 2.9559375 L 7.3511748046875 2.9559375 Q 7.3856748046875 2.9559375 7.4145498046875 2.9701874999999998 Q 7.4434248046875 2.9844375 7.4644248046875 3.0088125 Q 7.4854248046875 3.0331875 7.497424804687499 3.0628124999999997 Q 7.5094248046875 3.0924375 7.5094248046875 3.1231875 Q 7.5094248046875 3.1666875 7.4902998046875 3.2053125 Q 7.4711748046875 3.2439375 7.4366748046875 3.2679375 Q 7.4021748046875 3.2919375 7.3556748046875 3.2919375 L 7.1831748046875 3.2919375 L 7.1831748046875 3.4884375 L 7.1306748046875 3.4884375 M 7.1831748046875 3.2454375 L 7.3534248046875 3.2454375 Q 7.3849248046875 3.2454375 7.4081748046875 3.2281874999999998 Q 7.4314248046874996 3.2109375 7.4441748046875 3.1831875 Q 7.4569248046875 3.1554374999999997 7.4569248046875 3.1231875 Q 7.4569248046875 3.0901875 7.4419248046875 3.0624374999999997 Q 7.4269248046875 3.0346875 7.4025498046875 3.0185625 Q 7.3781748046875 3.0024375 7.3489248046875 3.0024375 L 7.1831748046875 3.0024375 L 7.1831748046875 3.2454375 M 7.598306762695312 3.4884375 L 7.598306762695312 2.9559375 L 7.823306762695313 2.9559375 Q 7.857806762695312 2.9559375 7.8863067626953125 2.9701874999999998 Q 7.914806762695313 2.9844375 7.936181762695313 3.0088125 Q 7.9575567626953125 3.0331875 7.969181762695312 3.0628124999999997 Q 7.9808067626953125 3.0924375 7.9808067626953125 3.1231875 Q 7.9808067626953125 3.1614375 7.966181762695312 3.1951875 Q 7.951556762695312 3.2289375 7.924931762695312 3.2521875 Q 7.898306762695312 3.2754375 7.8623067626953125 3.2829375 L 7.992806762695312 3.4884375 L 7.9335567626953125 3.4884375 L 7.808306762695312 3.2919375 L 7.6508067626953125 3.2919375 L 7.6508067626953125 3.4884375 L 7.598306762695312 3.4884375 M 7.6508067626953125 3.2454375 L 7.824806762695312 3.2454375 Q 7.856306762695312 3.2454375 7.879556762695312 3.2281874999999998 Q 7.902806762695312 3.2109375 7.915556762695313 3.1828125 Q 7.928306762695312 3.1546874999999996 7.928306762695312 3.1231875 Q 7.928306762695312 3.0909375 7.913681762695313 3.0635624999999997 Q 7.899056762695312 3.0361875 7.874681762695312 3.0193125 Q 7.850306762695312 3.0024375 7.820306762695313 3.0024375 L 7.6508067626953125 3.0024375 L 7.6508067626953125 3.2454375 M 8.303693115234374 3.4921875 Q 8.247443115234374 3.4921875 8.201693115234374 3.4696875 Q 8.155943115234374 3.4471875 8.122943115234374 3.4085625 Q 8.089943115234375 3.3699375 8.071943115234374 3.3215624999999998 Q 8.053943115234373 3.2731874999999997 8.053943115234373 3.2221875 Q 8.053943115234373 3.1689374999999997 8.072693115234374 3.1205624999999997 Q 8.091443115234375 3.0721875 8.125568115234374 3.0343125 Q 8.159693115234374 2.9964375 8.205443115234374 2.9743125 Q 8.251193115234374 2.9521875 8.304443115234374 2.9521875 Q 8.360693115234374 2.9521875 8.406443115234374 2.9754375 Q 8.452193115234374 2.9986875 8.484818115234374 3.0376874999999997 Q 8.517443115234373 3.0766875 8.535443115234374 3.1246875 Q 8.553443115234375 3.1726875 8.553443115234375 3.2229375 Q 8.553443115234375 3.2761875 8.534693115234374 3.3245625 Q 8.515943115234373 3.3729375 8.482193115234374 3.4108125 Q 8.448443115234374 3.4486874999999997 8.402693115234374 3.4704375 Q 8.356943115234374 3.4921875 8.303693115234374 3.4921875 M 8.106443115234374 3.2221875 Q 8.106443115234374 3.2656875 8.120693115234374 3.3058125 Q 8.134943115234375 3.3459375 8.161193115234374 3.3770625 Q 8.187443115234373 3.4081875 8.223818115234375 3.4265624999999997 Q 8.260193115234374 3.4449375 8.303693115234374 3.4449375 Q 8.349443115234374 3.4449375 8.385818115234374 3.4258124999999997 Q 8.422193115234373 3.4066875 8.448068115234374 3.3748125 Q 8.473943115234373 3.3429374999999997 8.487443115234374 3.3031875 Q 8.500943115234374 3.2634374999999998 8.500943115234374 3.2221875 Q 8.500943115234374 3.1786874999999997 8.486693115234374 3.1389375 Q 8.472443115234373 3.0991874999999998 8.445818115234374 3.0676875 Q 8.419193115234375 3.0361875 8.383193115234373 3.0181875 Q 8.347193115234374 3.0001875 8.303693115234374 3.0001875 Q 8.258693115234374 3.0001875 8.222318115234375 3.0189375 Q 8.185943115234375 3.0376874999999997 8.160068115234374 3.0695625 Q 8.134193115234375 3.1014375 8.120318115234374 3.1411875 Q 8.106443115234374 3.1809374999999998 8.106443115234374 3.2221875 M 8.653550537109375 3.4884375 L 8.653550537109375 2.9559375 L 9.003050537109374 2.9559375 L 9.003050537109374 3.0024375 L 8.706050537109373 3.0024375 L 8.706050537109373 3.1981875 L 8.956550537109374 3.1981875 L 8.956550537109374 3.2416875 L 8.706050537109373 3.2416875 L 8.706050537109373 3.4884375 L 8.653550537109375 3.4884375 M 9.45416748046875 3.4419375 L 9.45416748046875 3.4884375 L 9.09641748046875 3.4884375 L 9.09641748046875 2.9559375 L 9.447417480468749 2.9559375 L 9.447417480468749 3.0024375 L 9.148917480468748 3.0024375 L 9.148917480468748 3.1944375 L 9.40916748046875 3.1944375 L 9.40916748046875 3.2386874999999997 L 9.148917480468748 3.2386874999999997 L 9.148917480468748 3.4419375 L 9.45416748046875 3.4419375 M 9.86252783203125 3.0556875 Q 9.851277832031249 3.0429375 9.83627783203125 3.0328125 Q 9.82127783203125 3.0226875 9.802527832031249 3.0151874999999997 Q 9.78377783203125 3.0076875 9.762402832031249 3.0031874999999997 Q 9.74102783203125 2.9986875 9.717027832031249 2.9986875 Q 9.64727783203125 2.9986875 9.614652832031249 3.0253125 Q 9.58202783203125 3.0519374999999997 9.58202783203125 3.0976874999999997 Q 9.58202783203125 3.1291875 9.59740283203125 3.1471875 Q 9.612777832031249 3.1651875 9.64577783203125 3.1764375 Q 9.67877783203125 3.1876875 9.72977783203125 3.1996875 Q 9.78677783203125 3.2116875 9.82802783203125 3.2281874999999998 Q 9.86927783203125 3.2446875 9.891777832031249 3.2728124999999997 Q 9.91427783203125 3.3009375 9.91427783203125 3.3489375 Q 9.91427783203125 3.3856875 9.900027832031249 3.4126874999999997 Q 9.885777832031248 3.4396875 9.86027783203125 3.4576875 Q 9.83477783203125 3.4756875 9.799527832031249 3.4843124999999997 Q 9.764277832031249 3.4929375 9.72227783203125 3.4929375 Q 9.68102783203125 3.4929375 9.64315283203125 3.4843124999999997 Q 9.605277832031248 3.4756875 9.571527832031249 3.4588125 Q 9.53777783203125 3.4419375 9.508527832031248 3.4156874999999998 L 9.53477783203125 3.3729375 Q 9.54902783203125 3.3879375 9.568902832031249 3.4010624999999997 Q 9.58877783203125 3.4141874999999997 9.613152832031249 3.4246874999999997 Q 9.63752783203125 3.4351875 9.665652832031249 3.4408125 Q 9.69377783203125 3.4464375 9.72377783203125 3.4464375 Q 9.78752783203125 3.4464375 9.82315283203125 3.4231875 Q 9.85877783203125 3.3999375 9.85877783203125 3.3541874999999997 Q 9.85877783203125 3.3211874999999997 9.840777832031248 3.3013125 Q 9.82277783203125 3.2814375 9.78677783203125 3.2686875 Q 9.750777832031249 3.2559375 9.698277832031248 3.2439375 Q 9.64277783203125 3.2311875 9.604527832031248 3.2154374999999997 Q 9.566277832031249 3.1996875 9.54715283203125 3.1738125 Q 9.528027832031249 3.1479375 9.528027832031249 3.1051875 Q 9.528027832031249 3.0556875 9.55240283203125 3.0215625 Q 9.576777832031249 2.9874375 9.619527832031249 2.9698124999999997 Q 9.662277832031249 2.9521875 9.71777783203125 2.9521875 Q 9.753027832031249 2.9521875 9.78340283203125 2.9593125 Q 9.81377783203125 2.9664374999999996 9.839652832031248 2.9799374999999997 Q 9.86552783203125 2.9934374999999998 9.888027832031248 3.0136874999999996 L 9.86252783203125 3.0556875 M 10.318898803710937 3.0556875 Q 10.307648803710936 3.0429375 10.292648803710936 3.0328125 Q 10.277648803710937 3.0226875 10.258898803710936 3.0151874999999997 Q 10.240148803710937 3.0076875 10.218773803710937 3.0031874999999997 Q 10.197398803710938 2.9986875 10.173398803710937 2.9986875 Q 10.103648803710938 2.9986875 10.071023803710936 3.0253125 Q 10.038398803710937 3.0519374999999997 10.038398803710937 3.0976874999999997 Q 10.038398803710937 3.1291875 10.053773803710937 3.1471875 Q 10.069148803710936 3.1651875 10.102148803710937 3.1764375 Q 10.135148803710937 3.1876875 10.186148803710937 3.1996875 Q 10.243148803710938 3.2116875 10.284398803710937 3.2281874999999998 Q 10.325648803710937 3.2446875 10.348148803710936 3.2728124999999997 Q 10.370648803710937 3.3009375 10.370648803710937 3.3489375 Q 10.370648803710937 3.3856875 10.356398803710936 3.4126874999999997 Q 10.342148803710936 3.4396875 10.316648803710937 3.4576875 Q 10.291148803710938 3.4756875 10.255898803710936 3.4843124999999997 Q 10.220648803710937 3.4929375 10.178648803710937 3.4929375 Q 10.137398803710937 3.4929375 10.099523803710937 3.4843124999999997 Q 10.061648803710936 3.4756875 10.027898803710936 3.4588125 Q 9.994148803710937 3.4419375 9.964898803710936 3.4156874999999998 L 9.991148803710937 3.3729375 Q 10.005398803710937 3.3879375 10.025273803710936 3.4010624999999997 Q 10.045148803710937 3.4141874999999997 10.069523803710936 3.4246874999999997 Q 10.093898803710937 3.4351875 10.122023803710936 3.4408125 Q 10.150148803710938 3.4464375 10.180148803710937 3.4464375 Q 10.243898803710938 3.4464375 10.279523803710937 3.4231875 Q 10.315148803710937 3.3999375 10.315148803710937 3.3541874999999997 Q 10.315148803710937 3.3211874999999997 10.297148803710936 3.3013125 Q 10.279148803710937 3.2814375 10.243148803710938 3.2686875 Q 10.207148803710936 3.2559375 10.154648803710936 3.2439375 Q 10.099148803710937 3.2311875 10.060898803710936 3.2154374999999997 Q 10.022648803710936 3.1996875 10.003523803710937 3.1738125 Q 9.984398803710937 3.1479375 9.984398803710937 3.1051875 Q 9.984398803710937 3.0556875 10.008773803710938 3.0215625 Q 10.033148803710937 2.9874375 10.075898803710936 2.9698124999999997 Q 10.118648803710936 2.9521875 10.174148803710937 2.9521875 Q 10.209398803710936 2.9521875 10.239773803710937 2.9593125 Q 10.270148803710937 2.9664374999999996 10.296023803710936 2.9799374999999997 Q 10.321898803710937 2.9934374999999998 10.344398803710936 3.0136874999999996 L 10.318898803710937 3.0556875 M 10.464019775390625 3.4884375 L 10.464019775390625 2.9559375 L 10.516519775390623 2.9559375 L 10.516519775390623 3.4884375 L 10.464019775390625 3.4884375 M 10.865634155273437 3.4921875 Q 10.809384155273436 3.4921875 10.763634155273436 3.4696875 Q 10.717884155273437 3.4471875 10.684884155273437 3.4085625 Q 10.651884155273438 3.3699375 10.633884155273437 3.3215624999999998 Q 10.615884155273436 3.2731874999999997 10.615884155273436 3.2221875 Q 10.615884155273436 3.1689374999999997 10.634634155273437 3.1205624999999997 Q 10.653384155273438 3.0721875 10.687509155273437 3.0343125 Q 10.721634155273437 2.9964375 10.767384155273437 2.9743125 Q 10.813134155273437 2.9521875 10.866384155273437 2.9521875 Q 10.922634155273437 2.9521875 10.968384155273437 2.9754375 Q 11.014134155273437 2.9986875 11.046759155273437 3.0376874999999997 Q 11.079384155273436 3.0766875 11.097384155273437 3.1246875 Q 11.115384155273437 3.1726875 11.115384155273437 3.2229375 Q 11.115384155273437 3.2761875 11.096634155273437 3.3245625 Q 11.077884155273436 3.3729375 11.044134155273436 3.4108125 Q 11.010384155273437 3.4486874999999997 10.964634155273437 3.4704375 Q 10.918884155273437 3.4921875 10.865634155273437 3.4921875 M 10.668384155273436 3.2221875 Q 10.668384155273436 3.2656875 10.682634155273437 3.3058125 Q 10.696884155273438 3.3459375 10.723134155273437 3.3770625 Q 10.749384155273436 3.4081875 10.785759155273437 3.4265624999999997 Q 10.822134155273437 3.4449375 10.865634155273437 3.4449375 Q 10.911384155273437 3.4449375 10.947759155273436 3.4258124999999997 Q 10.984134155273436 3.4066875 11.010009155273437 3.3748125 Q 11.035884155273436 3.3429374999999997 11.049384155273437 3.3031875 Q 11.062884155273437 3.2634374999999998 11.062884155273437 3.2221875 Q 11.062884155273437 3.1786874999999997 11.048634155273437 3.1389375 Q 11.034384155273436 3.0991874999999998 11.007759155273437 3.0676875 Q 10.981134155273438 3.0361875 10.945134155273436 3.0181875 Q 10.909134155273437 3.0001875 10.865634155273437 3.0001875 Q 10.820634155273437 3.0001875 10.784259155273437 3.0189375 Q 10.747884155273438 3.0376874999999997 10.722009155273437 3.0695625 Q 10.696134155273437 3.1014375 10.682259155273437 3.1411875 Q 10.668384155273436 3.1809374999999998 10.668384155273436 3.2221875 M 11.267991577148436 3.0526874999999998 L 11.267991577148436 3.4884375 L 11.215491577148438 3.4884375 L 11.215491577148438 2.9559375 L 11.258991577148437 2.9559375 L 11.608491577148436 3.3999375 L 11.608491577148436 2.9566874999999997 L 11.660991577148437 2.9566874999999997 L 11.660991577148437 3.4884375 L 11.612241577148437 3.4884375 L 11.267991577148436 3.0526874999999998 M 12.153346069335937 3.4419375 L 12.153346069335937 3.4884375 L 11.795596069335938 3.4884375 L 11.795596069335938 2.9559375 L 12.146596069335937 2.9559375 L 12.146596069335937 3.0024375 L 11.848096069335936 3.0024375 L 11.848096069335936 3.1944375 L 12.108346069335937 3.1944375 L 12.108346069335937 3.2386874999999997 L 11.848096069335936 3.2386874999999997 L 11.848096069335936 3.4419375 L 12.153346069335937 3.4419375 M 12.253477661132813 3.4884375 L 12.253477661132813 2.9559375 L 12.305977661132811 2.9559375 L 12.305977661132811 3.4419375 L 12.613477661132812 3.4419375 L 12.613477661132812 3.4884375 L 12.253477661132813 3.4884375 M 12.691858520507813 3.4884375 L 12.691858520507813 2.9559375 L 12.744358520507811 2.9559375 L 12.744358520507811 3.4419375 L 13.051858520507812 3.4419375 L 13.051858520507812 3.4884375 L 12.691858520507813 3.4884375 M 13.487989379882812 3.4419375 L 13.487989379882812 3.4884375 L 13.130239379882813 3.4884375 L 13.130239379882813 2.9559375 L 13.481239379882812 2.9559375 L 13.481239379882812 3.0024375 L 13.182739379882811 3.0024375 L 13.182739379882811 3.1944375 L 13.442989379882812 3.1944375 L 13.442989379882812 3.2386874999999997 L 13.182739379882811 3.2386874999999997 L 13.182739379882811 3.4419375 L 13.487989379882812 3.4419375 M 13.588120971679688 3.4884375 L 13.588120971679688 2.9559375 L 13.813120971679687 2.9559375 Q 13.847620971679687 2.9559375 13.876120971679686 2.9701874999999998 Q 13.904620971679687 2.9844375 13.925995971679686 3.0088125 Q 13.947370971679687 3.0331875 13.958995971679688 3.0628124999999997 Q 13.970620971679686 3.0924375 13.970620971679686 3.1231875 Q 13.970620971679686 3.1614375 13.955995971679688 3.1951875 Q 13.941370971679687 3.2289375 13.914745971679688 3.2521875 Q 13.888120971679687 3.2754375 13.852120971679687 3.2829375 L 13.982620971679687 3.4884375 L 13.923370971679686 3.4884375 L 13.798120971679687 3.2919375 L 13.640620971679686 3.2919375 L 13.640620971679686 3.4884375 L 13.588120971679688 3.4884375 M 13.640620971679686 3.2454375 L 13.814620971679688 3.2454375 Q 13.846120971679687 3.2454375 13.869370971679688 3.2281874999999998 Q 13.892620971679687 3.2109375 13.905370971679687 3.1828125 Q 13.918120971679688 3.1546874999999996 13.918120971679688 3.1231875 Q 13.918120971679688 3.0909375 13.903495971679687 3.0635624999999997 Q 13.888870971679687 3.0361875 13.864495971679688 3.0193125 Q 13.840120971679687 3.0024375 13.810120971679687 3.0024375 L 13.640620971679686 3.0024375 L 13.640620971679686 3.2454375 M 14.582635986328125 3.0556875 Q 14.571385986328124 3.0429375 14.556385986328124 3.0328125 Q 14.541385986328125 3.0226875 14.522635986328124 3.0151874999999997 Q 14.503885986328125 3.0076875 14.482510986328125 3.0031874999999997 Q 14.461135986328125 2.9986875 14.437135986328125 2.9986875 Q 14.367385986328125 2.9986875 14.334760986328124 3.0253125 Q 14.302135986328125 3.0519374999999997 14.302135986328125 3.0976874999999997 Q 14.302135986328125 3.1291875 14.317510986328125 3.1471875 Q 14.332885986328124 3.1651875 14.365885986328125 3.1764375 Q 14.398885986328125 3.1876875 14.449885986328125 3.1996875 Q 14.506885986328125 3.2116875 14.548135986328125 3.2281874999999998 Q 14.589385986328125 3.2446875 14.611885986328124 3.2728124999999997 Q 14.634385986328125 3.3009375 14.634385986328125 3.3489375 Q 14.634385986328125 3.3856875 14.620135986328124 3.4126874999999997 Q 14.605885986328124 3.4396875 14.580385986328125 3.4576875 Q 14.554885986328125 3.4756875 14.519635986328124 3.4843124999999997 Q 14.484385986328125 3.4929375 14.442385986328125 3.4929375 Q 14.401135986328125 3.4929375 14.363260986328125 3.4843124999999997 Q 14.325385986328124 3.4756875 14.291635986328124 3.4588125 Q 14.257885986328125 3.4419375 14.228635986328124 3.4156874999999998 L 14.254885986328125 3.3729375 Q 14.269135986328125 3.3879375 14.289010986328124 3.4010624999999997 Q 14.308885986328125 3.4141874999999997 14.333260986328124 3.4246874999999997 Q 14.357635986328125 3.4351875 14.385760986328124 3.4408125 Q 14.413885986328125 3.4464375 14.443885986328125 3.4464375 Q 14.507635986328125 3.4464375 14.543260986328125 3.4231875 Q 14.578885986328125 3.3999375 14.578885986328125 3.3541874999999997 Q 14.578885986328125 3.3211874999999997 14.560885986328124 3.3013125 Q 14.542885986328125 3.2814375 14.506885986328125 3.2686875 Q 14.470885986328124 3.2559375 14.418385986328124 3.2439375 Q 14.362885986328125 3.2311875 14.324635986328124 3.2154374999999997 Q 14.286385986328124 3.1996875 14.267260986328125 3.1738125 Q 14.248135986328125 3.1479375 14.248135986328125 3.1051875 Q 14.248135986328125 3.0556875 14.272510986328125 3.0215625 Q 14.296885986328125 2.9874375 14.339635986328124 2.9698124999999997 Q 14.382385986328124 2.9521875 14.437885986328125 2.9521875 Q 14.473135986328124 2.9521875 14.503510986328125 2.9593125 Q 14.533885986328125 2.9664374999999996 14.559760986328124 2.9799374999999997 Q 14.585635986328125 2.9934374999999998 14.608135986328124 3.0136874999999996 L 14.582635986328125 3.0556875 M 15.085506958007812 3.4419375 L 15.085506958007812 3.4884375 L 14.727756958007813 3.4884375 L 14.727756958007813 2.9559375 L 15.078756958007812 2.9559375 L 15.078756958007812 3.0024375 L 14.780256958007811 3.0024375 L 14.780256958007811 3.1944375 L 15.040506958007812 3.1944375 L 15.040506958007812 3.2386874999999997 L 14.780256958007811 3.2386874999999997 L 14.780256958007811 3.4419375 L 15.085506958007812 3.4419375 M 15.185638549804688 3.4884375 L 15.185638549804688 2.9559375 L 15.410638549804688 2.9559375 Q 15.445138549804687 2.9559375 15.473638549804686 2.9701874999999998 Q 15.502138549804688 2.9844375 15.523513549804687 3.0088125 Q 15.544888549804687 3.0331875 15.556513549804688 3.0628124999999997 Q 15.568138549804686 3.0924375 15.568138549804686 3.1231875 Q 15.568138549804686 3.1614375 15.553513549804688 3.1951875 Q 15.538888549804687 3.2289375 15.512263549804688 3.2521875 Q 15.485638549804687 3.2754375 15.449638549804687 3.2829375 L 15.580138549804687 3.4884375 L 15.520888549804686 3.4884375 L 15.395638549804687 3.2919375 L 15.238138549804686 3.2919375 L 15.238138549804686 3.4884375 L 15.185638549804688 3.4884375 M 15.238138549804686 3.2454375 L 15.412138549804688 3.2454375 Q 15.443638549804687 3.2454375 15.466888549804688 3.2281874999999998 Q 15.490138549804687 3.2109375 15.502888549804688 3.1828125 Q 15.515638549804688 3.1546874999999996 15.515638549804688 3.1231875 Q 15.515638549804688 3.0909375 15.501013549804687 3.0635624999999997 Q 15.486388549804687 3.0361875 15.462013549804688 3.0193125 Q 15.437638549804687 3.0024375 15.407638549804688 3.0024375 L 15.238138549804686 3.0024375 L 15.238138549804686 3.2454375 M 15.660038452148438 2.9559375 L 15.850538452148438 3.4231875 L 16.040288452148438 2.9559375 L 16.095038452148437 2.9559375 L 15.874538452148437 3.4884375 L 15.826538452148437 3.4884375 L 15.605288452148438 2.9559375 L 15.660038452148438 2.9559375 M 16.172675537109374 3.4884375 L 16.172675537109374 2.9559375 L 16.225175537109376 2.9559375 L 16.225175537109376 3.4884375 L 16.172675537109374 3.4884375 M 16.324539916992187 3.2184375 Q 16.324539916992187 3.1696874999999998 16.341414916992186 3.1228124999999998 Q 16.358289916992184 3.0759374999999998 16.390539916992186 3.0373124999999996 Q 16.422789916992187 2.9986875 16.470039916992185 2.9758125 Q 16.517289916992187 2.9529375 16.577289916992186 2.9529375 Q 16.648539916992185 2.9529375 16.699164916992185 2.9855625 Q 16.749789916992185 3.0181875 16.773789916992186 3.0691875 L 16.732539916992184 3.0946875 Q 16.715289916992184 3.0594375 16.689039916992186 3.0388124999999997 Q 16.662789916992185 3.0181875 16.633164916992186 3.0091875 Q 16.603539916992187 3.0001875 16.574289916992186 3.0001875 Q 16.526289916992187 3.0001875 16.489539916992186 3.0193125 Q 16.452789916992185 3.0384374999999997 16.427664916992185 3.0703125 Q 16.402539916992186 3.1021875 16.389789916992186 3.1415625 Q 16.377039916992185 3.1809374999999998 16.377039916992185 3.2214375 Q 16.377039916992185 3.2656875 16.392039916992186 3.3061875 Q 16.407039916992186 3.3466875 16.434039916992184 3.3778124999999997 Q 16.461039916992185 3.4089375 16.497414916992184 3.4273124999999998 Q 16.533789916992184 3.4456875 16.576539916992186 3.4456875 Q 16.606539916992187 3.4456875 16.638039916992184 3.4351875 Q 16.669539916992186 3.4246874999999997 16.696914916992185 3.4029374999999997 Q 16.724289916992184 3.3811875 16.740789916992185 3.3466875 L 16.784289916992186 3.3691875 Q 16.767789916992186 3.4089375 16.733289916992184 3.4366874999999997 Q 16.698789916992187 3.4644375 16.656414916992187 3.4786875 Q 16.614039916992187 3.4929375 16.573539916992186 3.4929375 Q 16.518789916992187 3.4929375 16.473039916992185 3.4693125 Q 16.427289916992187 3.4456875 16.393914916992184 3.4063125 Q 16.360539916992185 3.3669374999999997 16.342539916992184 3.3178125 Q 16.324539916992187 3.2686875 16.324539916992187 3.2184375 M 17.233145507812495 3.4419375 L 17.233145507812495 3.4884375 L 16.875395507812495 3.4884375 L 16.875395507812495 2.9559375 L 17.226395507812498 2.9559375 L 17.226395507812498 3.0024375 L 16.927895507812497 3.0024375 L 16.927895507812497 3.1944375 L 17.188145507812497 3.1944375 L 17.188145507812497 3.2386874999999997 L 16.927895507812497 3.2386874999999997 L 16.927895507812497 3.4419375 L 17.233145507812495 3.4419375 M 17.315277099609368 3.1734375 L 17.315277099609368 3.0999375 L 17.35877709960937 3.0999375 L 17.35877709960937 3.1734375 L 17.315277099609368 3.1734375 M 17.315277099609368 3.4884375 L 17.315277099609368 3.4149374999999997 L 17.35877709960937 3.4149374999999997 L 17.35877709960937 3.4884375 L 17.315277099609368 3.4884375 M 17.66777197265624 3.4884375 L 17.66777197265624 2.9566874999999997 L 17.720271972656242 2.9566874999999997 L 17.720271972656242 3.2656875 L 18.013521972656243 2.9559375 L 18.07127197265624 2.9559375 L 17.85377197265624 3.1899375 L 18.08252197265624 3.4884375 L 18.02327197265624 3.4884375 L 17.820021972656242 3.2214375 L 17.720271972656242 3.3249375 L 17.720271972656242 3.4884375 L 17.66777197265624 3.4884375 M 18.33639990234374 3.4921875 Q 18.28014990234374 3.4921875 18.23439990234374 3.4696875 Q 18.18864990234374 3.4471875 18.15564990234374 3.4085625 Q 18.12264990234374 3.3699375 18.104649902343738 3.3215624999999998 Q 18.08664990234374 3.2731874999999997 18.08664990234374 3.2221875 Q 18.08664990234374 3.1689374999999997 18.105399902343738 3.1205624999999997 Q 18.12414990234374 3.0721875 18.158274902343738 3.0343125 Q 18.19239990234374 2.9964375 18.23814990234374 2.9743125 Q 18.28389990234374 2.9521875 18.33714990234374 2.9521875 Q 18.393399902343738 2.9521875 18.43914990234374 2.9754375 Q 18.484899902343738 2.9986875 18.51752490234374 3.0376874999999997 Q 18.55014990234374 3.0766875 18.56814990234374 3.1246875 Q 18.586149902343738 3.1726875 18.586149902343738 3.2229375 Q 18.586149902343738 3.2761875 18.56739990234374 3.3245625 Q 18.54864990234374 3.3729375 18.51489990234374 3.4108125 Q 18.481149902343738 3.4486874999999997 18.43539990234374 3.4704375 Q 18.389649902343738 3.4921875 18.33639990234374 3.4921875 M 18.13914990234374 3.2221875 Q 18.13914990234374 3.2656875 18.15339990234374 3.3058125 Q 18.16764990234374 3.3459375 18.19389990234374 3.3770625 Q 18.22014990234374 3.4081875 18.256524902343738 3.4265624999999997 Q 18.292899902343738 3.4449375 18.33639990234374 3.4449375 Q 18.38214990234374 3.4449375 18.41852490234374 3.4258124999999997 Q 18.45489990234374 3.4066875 18.48077490234374 3.3748125 Q 18.50664990234374 3.3429374999999997 18.52014990234374 3.3031875 Q 18.53364990234374 3.2634374999999998 18.53364990234374 3.2221875 Q 18.53364990234374 3.1786874999999997 18.51939990234374 3.1389375 Q 18.50514990234374 3.0991874999999998 18.47852490234374 3.0676875 Q 18.45189990234374 3.0361875 18.41589990234374 3.0181875 Q 18.37989990234374 3.0001875 18.33639990234374 3.0001875 Q 18.291399902343738 3.0001875 18.255024902343738 3.0189375 Q 18.21864990234374 3.0376874999999997 18.19277490234374 3.0695625 Q 18.16689990234374 3.1014375 18.153024902343738 3.1411875 Q 18.13914990234374 3.1809374999999998 18.13914990234374 3.2221875 M 18.73875732421874 3.0526874999999998 L 18.73875732421874 3.4884375 L 18.686257324218737 3.4884375 L 18.686257324218737 2.9559375 L 18.72975732421874 2.9559375 L 19.079257324218737 3.3999375 L 19.079257324218737 2.9566874999999997 L 19.13175732421874 2.9566874999999997 L 19.13175732421874 3.4884375 L 19.083007324218737 3.4884375 L 18.73875732421874 3.0526874999999998 M 19.431361816406238 2.9559375 L 19.475611816406236 2.9559375 L 19.696861816406237 3.4884375 L 19.641361816406235 3.4884375 L 19.572361816406236 3.3219374999999998 L 19.333111816406237 3.3219374999999998 L 19.264861816406235 3.4884375 L 19.208611816406236 3.4884375 L 19.431361816406238 2.9559375 M 19.560361816406235 3.2806875 L 19.453111816406235 3.0174374999999998 L 19.344361816406234 3.2806875 L 19.560361816406235 3.2806875 M 19.774505859374983 3.4884375 L 19.774505859374983 2.9566874999999997 L 19.827005859374985 2.9566874999999997 L 19.827005859374985 3.2656875 L 20.120255859374986 2.9559375 L 20.178005859374984 2.9559375 L 19.960505859374983 3.1899375 L 20.189255859374985 3.4884375 L 20.130005859374982 3.4884375 L 19.926755859374985 3.2214375 L 19.827005859374985 3.3249375 L 19.827005859374985 3.4884375 L 19.774505859374983 3.4884375 M 20.44124560546873 3.4884375 L 20.44124560546873 2.9559375 L 20.790745605468732 2.9559375 L 20.790745605468732 3.0024375 L 20.49374560546873 3.0024375 L 20.49374560546873 3.1981875 L 20.74424560546873 3.1981875 L 20.74424560546873 3.2416875 L 20.49374560546873 3.2416875 L 20.49374560546873 3.4884375 L 20.44124560546873 3.4884375 M 21.002603759765606 2.9559375 L 21.046853759765604 2.9559375 L 21.268103759765605 3.4884375 L 21.212603759765603 3.4884375 L 21.143603759765604 3.3219374999999998 L 20.904353759765606 3.3219374999999998 L 20.836103759765603 3.4884375 L 20.779853759765604 3.4884375 L 21.002603759765606 2.9559375 M 21.131603759765603 3.2806875 L 21.024353759765603 3.0174374999999998 L 20.915603759765602 3.2806875 L 21.131603759765603 3.2806875 M 21.29099707031248 3.2184375 Q 21.29099707031248 3.1696874999999998 21.307872070312477 3.1228124999999998 Q 21.324747070312476 3.0759374999999998 21.356997070312477 3.0373124999999996 Q 21.38924707031248 2.9986875 21.436497070312477 2.9758125 Q 21.48374707031248 2.9529375 21.543747070312477 2.9529375 Q 21.614997070312477 2.9529375 21.665622070312477 2.9855625 Q 21.716247070312477 3.0181875 21.740247070312478 3.0691875 L 21.698997070312476 3.0946875 Q 21.681747070312476 3.0594375 21.655497070312478 3.0388124999999997 Q 21.629247070312477 3.0181875 21.599622070312478 3.0091875 Q 21.56999707031248 3.0001875 21.540747070312477 3.0001875 Q 21.49274707031248 3.0001875 21.455997070312478 3.0193125 Q 21.419247070312476 3.0384374999999997 21.394122070312477 3.0703125 Q 21.368997070312478 3.1021875 21.356247070312477 3.1415625 Q 21.343497070312477 3.1809374999999998 21.343497070312477 3.2214375 Q 21.343497070312477 3.2656875 21.358497070312477 3.3061875 Q 21.373497070312478 3.3466875 21.400497070312476 3.3778124999999997 Q 21.427497070312477 3.4089375 21.463872070312476 3.4273124999999998 Q 21.500247070312476 3.4456875 21.542997070312477 3.4456875 Q 21.57299707031248 3.4456875 21.604497070312476 3.4351875 Q 21.635997070312477 3.4246874999999997 21.663372070312477 3.4029374999999997 Q 21.690747070312476 3.3811875 21.707247070312476 3.3466875 L 21.750747070312478 3.3691875 Q 21.734247070312477 3.4089375 21.699747070312476 3.4366874999999997 Q 21.66524707031248 3.4644375 21.62287207031248 3.4786875 Q 21.58049707031248 3.4929375 21.539997070312477 3.4929375 Q 21.48524707031248 3.4929375 21.439497070312477 3.4693125 Q 21.39374707031248 3.4456875 21.360372070312476 3.4063125 Q 21.326997070312476 3.3669374999999997 21.308997070312476 3.3178125 Q 21.29099707031248 3.2686875 21.29099707031248 3.2184375 M 21.841852661132787 3.4884375 L 21.841852661132787 2.9559375 L 21.89435266113279 2.9559375 L 21.89435266113279 3.4884375 L 21.841852661132787 3.4884375 M 22.028967041015598 3.4884375 L 22.028967041015598 2.9559375 L 22.0814670410156 2.9559375 L 22.0814670410156 3.4419375 L 22.388967041015597 3.4419375 L 22.388967041015597 3.4884375 L 22.028967041015598 3.4884375 M 22.467347900390596 3.4884375 L 22.467347900390596 2.9559375 L 22.519847900390598 2.9559375 L 22.519847900390598 3.4884375 L 22.467347900390596 3.4884375 M 23.032462280273407 3.0024375 L 22.842712280273407 3.0024375 L 22.842712280273407 3.4884375 L 22.79021228027341 3.4884375 L 22.79021228027341 3.0024375 L 22.60046228027341 3.0024375 L 22.60046228027341 2.9559375 L 23.032462280273407 2.9559375 L 23.032462280273407 3.0024375 M 23.11607629394528 2.9559375 L 23.29007629394528 3.2424375 L 23.465576293945283 2.9559375 L 23.52257629394528 2.9559375 L 23.31632629394528 3.2904375 L 23.31632629394528 3.4884375 L 23.263826293945282 3.4884375 L 23.263826293945282 3.2889375 L 23.05832629394528 2.9559375 L 23.11607629394528 2.9559375 M 24.2395726318359 3.4884375 L 24.2395726318359 3.0549375 L 24.0468226318359 3.3916874999999997 L 24.013822631835904 3.3916874999999997 L 23.820322631835904 3.0549375 L 23.820322631835904 3.4884375 L 23.7678226318359 3.4884375 L 23.7678226318359 2.9559375 L 23.821822631835904 2.9559375 L 24.029572631835904 3.3204374999999997 L 24.2388226318359 2.9559375 L 24.292072631835904 2.9559375 L 24.292072631835904 3.4884375 L 24.2395726318359 3.4884375 M 24.591708251953094 2.9559375 L 24.63595825195309 2.9559375 L 24.857208251953093 3.4884375 L 24.80170825195309 3.4884375 L 24.732708251953092 3.3219374999999998 L 24.493458251953093 3.3219374999999998 L 24.42520825195309 3.4884375 L 24.368958251953092 3.4884375 L 24.591708251953094 2.9559375 M 24.72070825195309 3.2806875 L 24.61345825195309 3.0174374999999998 L 24.50470825195309 3.2806875 L 24.72070825195309 3.2806875 M 24.98735229492184 3.0526874999999998 L 24.98735229492184 3.4884375 L 24.93485229492184 3.4884375 L 24.93485229492184 2.9559375 L 24.97835229492184 2.9559375 L 25.32785229492184 3.3999375 L 25.32785229492184 2.9566874999999997 L 25.380352294921842 2.9566874999999997 L 25.380352294921842 3.4884375 L 25.33160229492184 3.4884375 L 24.98735229492184 3.0526874999999998 M 25.67995678710934 2.9559375 L 25.72420678710934 2.9559375 L 25.94545678710934 3.4884375 L 25.889956787109337 3.4884375 L 25.82095678710934 3.3219374999999998 L 25.58170678710934 3.3219374999999998 L 25.513456787109337 3.4884375 L 25.45720678710934 3.4884375 L 25.67995678710934 2.9559375 M 25.808956787109338 3.2806875 L 25.701706787109337 3.0174374999999998 L 25.592956787109337 3.2806875 L 25.808956787109338 3.2806875 M 26.21735009765621 3.4921875 Q 26.164100097656213 3.4921875 26.11835009765621 3.4693125 Q 26.072600097656213 3.4464375 26.038850097656212 3.4074375 Q 26.00510009765621 3.3684374999999998 25.986725097656212 3.3204374999999997 Q 25.968350097656213 3.2724374999999997 25.968350097656213 3.2214375 Q 25.968350097656213 3.1674374999999997 25.986725097656212 3.1190625 Q 26.00510009765621 3.0706875 26.038100097656212 3.0331875 Q 26.071100097656213 2.9956875 26.11610009765621 2.9739375 Q 26.161100097656213 2.9521875 26.21435009765621 2.9521875 Q 26.29310009765621 2.9521875 26.342600097656213 2.9844375 Q 26.39210009765621 3.0166874999999997 26.417600097656212 3.0684375 L 26.37710009765621 3.0954375 Q 26.351600097656213 3.0459375 26.30885009765621 3.0226875 Q 26.26610009765621 2.9994375 26.21360009765621 2.9994375 Q 26.169350097656213 2.9994375 26.13372509765621 3.0181875 Q 26.09810009765621 3.0369374999999996 26.072600097656213 3.0684375 Q 26.047100097656212 3.0999375 26.03397509765621 3.1396875 Q 26.02085009765621 3.1794374999999997 26.02085009765621 3.2221875 Q 26.02085009765621 3.2671875 26.035850097656212 3.3073124999999997 Q 26.050850097656213 3.3474375 26.07860009765621 3.3785624999999997 Q 26.10635009765621 3.4096875 26.14272509765621 3.4273124999999998 Q 26.17910009765621 3.4449375 26.221100097656212 3.4449375 Q 26.26985009765621 3.4449375 26.313350097656212 3.4205625 Q 26.356850097656213 3.3961875 26.39660009765621 3.3451874999999998 L 26.39660009765621 3.4006874999999996 Q 26.320850097656212 3.4921875 26.21735009765621 3.4921875 M 26.38835009765621 3.2671875 L 26.26985009765621 3.2671875 L 26.26985009765621 3.2266874999999997 L 26.432600097656213 3.2266874999999997 L 26.432600097656213 3.4884375 L 26.38835009765621 3.4884375 L 26.38835009765621 3.2671875 M 26.89947766113277 3.4419375 L 26.89947766113277 3.4884375 L 26.54172766113277 3.4884375 L 26.54172766113277 2.9559375 L 26.892727661132774 2.9559375 L 26.892727661132774 3.0024375 L 26.594227661132773 3.0024375 L 26.594227661132773 3.1944375 L 26.854477661132773 3.1944375 L 26.854477661132773 3.2386874999999997 L 26.594227661132773 3.2386874999999997 L 26.594227661132773 3.4419375 L 26.89947766113277 3.4419375 M 27.471359252929645 3.4884375 L 27.471359252929645 3.0549375 L 27.278609252929645 3.3916874999999997 L 27.245609252929647 3.3916874999999997 L 27.052109252929647 3.0549375 L 27.052109252929647 3.4884375 L 26.999609252929645 3.4884375 L 26.999609252929645 2.9559375 L 27.053609252929647 2.9559375 L 27.261359252929644 3.3204374999999997 L 27.470609252929645 2.9559375 L 27.523859252929647 2.9559375 L 27.523859252929647 3.4884375 L 27.471359252929645 3.4884375 M 28.016244873046833 3.4419375 L 28.016244873046833 3.4884375 L 27.658494873046834 3.4884375 L 27.658494873046834 2.9559375 L 28.009494873046837 2.9559375 L 28.009494873046837 3.0024375 L 27.710994873046836 3.0024375 L 27.710994873046836 3.1944375 L 27.971244873046835 3.1944375 L 27.971244873046835 3.2386874999999997 L 27.710994873046836 3.2386874999999997 L 27.710994873046836 3.4419375 L 28.016244873046833 3.4419375 M 28.16887646484371 3.0526874999999998 L 28.16887646484371 3.4884375 L 28.116376464843707 3.4884375 L 28.116376464843707 2.9559375 L 28.15987646484371 2.9559375 L 28.509376464843708 3.3999375 L 28.509376464843708 2.9566874999999997 L 28.56187646484371 2.9566874999999997 L 28.56187646484371 3.4884375 L 28.513126464843708 3.4884375 L 28.16887646484371 3.0526874999999998 M 29.074480957031206 3.0024375 L 28.884730957031206 3.0024375 L 28.884730957031206 3.4884375 L 28.832230957031207 3.4884375 L 28.832230957031207 3.0024375 L 28.642480957031207 3.0024375 L 28.642480957031207 2.9559375 L 29.074480957031206 2.9559375 L 29.074480957031206 3.0024375 M 29.086100097656203 3.4884375 L 29.086100097656203 3.4149374999999997 L 29.130350097656205 3.4149374999999997 L 29.130350097656205 3.4884375 L 29.086100097656203 3.4884375" fill="#000000" fill-rule="nonzero"></path></g><g clip-path="url(#SvgjsClipPath1213)"><g clip-path="url(#SvgjsClipPath1212064dc61b-d60a-4146-95ae-ca182a4f42a7)"><path d=" M -4.703756490002716 1.5265643134879354 L -2.949093583428393 0.9676842671238559 L -2.949093583428393 2.4168929771556567 L -4.706995916298174 2.7255865999936377 Z" fill="#4caf7a" transform="matrix(1,0,0,1,0,0)" fill-rule="nonzero"></path></g><g clip-path="url(#SvgjsClipPath1212064dc61b-d60a-4146-95ae-ca182a4f42a7)"><path d=" M -2.1237247689848058 -0.08513330814428217 L -2.1237247689848058 2.7743319859763647 L -0.6420032804022426 3.4047164420328864 L -0.6420032804022426 1.0391846475722442 Z" fill="#4caf7a" transform="matrix(1,0,0,1,0,0)" fill-rule="nonzero"></path></g><g clip-path="url(#a6edd02f7-9bef-4277-8fd3-28ca84d7dbf9064dc61b-d60a-4146-95ae-ca182a4f42a7)"><path d=" M -2.297100432543749 0.12717677656472978 C -2.2749380160589645 0.1185251380439315 -2.2508793500353748 0.12318675149349403 -2.2337340937886787 0.1372506022396319 L -0.8532249243398384 1.1573143385206026 C -0.8363534088066436 1.1697955558630657 -0.8267768385686143 1.1898367863148287 -0.8276650607646943 1.2108043775943966 L -0.8273885243736183 1.9624302885382698 L -0.4320995059302044 2.188123488854803 C -0.4106086778237463 2.200370100459585 -0.39895464419984084 2.223243610521422 -0.4001002949628676 2.246393656974334 L -0.40081138853992027 3.1500750778111417 C -0.400809677609252 3.171517356491905 -0.411665229975708 3.1915021836061284 -0.4296533889335574 3.2031725501495023 C -0.44764154789140687 3.2148429166928754 -0.47031551622259826 3.216611388372714 -0.48989561166506146 3.2078711835459606 L -0.8270329775850929 3.0566057776275404 L -0.8268749567901921 3.5100069433955854 C -0.8268749567901921 3.5449690442673054 -0.8552396894748187 3.5732942717532064 -0.8901622851478121 3.5732942717532064 L -0.8901622851478121 3.5735708081442814 L -1.8713134006845533 3.5735708081442814 C -1.9063940171524476 3.5735708081442814 -1.9348377602345241 3.5450875598634806 -1.9348377602345241 3.5100069433955863 L -1.9348377602345241 2.559590872466978 L -2.216351806349632 2.4332927521428127 C -2.216351806349632 2.4332927521428127 -2.282720540207811 2.4012145307780264 -2.305278008679846 2.3918122934814514 C -2.339726541968139 2.377432401145513 -2.351222554797145 2.3444060550113237 -2.3376722716344336 2.3096019749345054 C -2.330830757107853 2.294262801572745 -2.318175856510974 2.2822697594283206 -2.3024916294536832 2.276261300220261 C -2.286807402396393 2.2702528410122014 -2.269378683687033 2.270721171178656 -2.2540397659333835 2.277563258768444 L -1.9348377602345241 2.4207696041469546 L -1.9348377602345241 1.4393814574178627 C -1.9348496469912217 1.4158624240015283 -1.9218660865016104 1.3942614806139069 -1.9010911282417378 1.3832366820473152 C -1.8803161699818647 1.3722118834807238 -1.8551500115631678 1.3735676373919088 -1.8356797114345027 1.3867605327160242 L -0.9540026862875832 1.890175280070051 L -0.9542397174799344 1.2401962454458766 L -2.283352623387412 0.25809700513973216 L -2.5622198211879375 0.36796096279425294 L -2.564590133111444 1.2315051017263523 C -2.564590133111444 1.2602648863982298 -2.583789659691846 1.284521078415445 -2.6100606168440414 1.2922245921668407 L -2.6100211116453167 1.2923036025642909 L -4.327351605424414 1.8010515517462105 L -4.327351605424414 2.7848100103988083 L -2.641783291420302 2.505429245014856 C -2.622842126898616 2.5023497232332437 -2.603525795798367 2.5080196075540186 -2.589254063011432 2.5208480451478694 C -2.5749823302244974 2.53367648274172 -2.5672928480821793 2.5522813235034247 -2.5683431269903294 2.571442432084508 L -2.570910964907461 3.5100069433955854 C -2.570910964907461 3.5449690442673045 -2.5992756975920877 3.5732942717532055 -2.634198293265081 3.5732942717532055 L -2.634198293265081 3.5735708081442814 L -4.390875964974385 3.5735708081442814 C -4.425956581442279 3.5735708081442814 -4.4544003245243555 3.5450875598634797 -4.4544003245243555 3.5100069433955854 L -4.4544003245243555 2.934297682374611 L -4.889826624872478 3.0064736804453807 L -4.889826624872478 3.006434175246655 C -4.908156396139708 3.0094252074811196 -4.92687482062164 3.004213957712474 -4.941021959615957 2.9921812835785984 C -4.9551690986102725 2.980148609444723 -4.963316865233328 2.962509152585362 -4.963306294501176 2.943936950863537 L -4.962911242513925 1.908031629893799 C -4.964560825616198 1.8786297880952725 -4.945737739850974 1.8519664779113154 -4.917480263980052 1.8436776611706007 L -4.4544003245243555 1.7065156111970314 L -4.4544003245243555 1.0203498145406598 C -4.4544003245243555 0.9920640922534834 -4.435911891521005 0.968084436627344 -4.4103125227471365 0.9598673552925219 L -3.1515583757690733 0.4638400801000867 L -2.6885574467108273 0.28140507238754564 Z M -2.6910462742305095 1.1841383684549498 L -2.688912993499354 0.4178955339827872 L -4.327351605424414 1.063489491548475 L -4.327351605424414 1.6688276516132794 Z M -4.454400324524356 1.8387000061312364 L -4.836336585798684 1.9518428952799411 L -4.83669213258721 2.86923262007436 L -4.454400324524356 2.8058662813192896 Z M -2.6951153096991955 2.642709810584601 L -4.327351605424414 2.9132414114541296 L -4.327351605424414 3.446482583845615 L -2.6973276008278018 3.446482583845615 Z M -0.8273490191748927 2.108362492628812 L -0.8270724827838167 2.9177845093075163 L -0.52730703485771 3.052299710966503 L -0.5267144568768343 2.2800520862881246 Z M -0.953489118704157 3.446482583845614 L -0.9536471394990578 2.9998368070595616 L -1.807789041134582 2.616596874227305 L -1.807789041134582 3.446482583845614 Z M -0.9536866446977825 2.8609760335408128 L -0.9539631810888585 2.036107484160593 L -1.807789041134582 1.5486133318927806 L -1.807789041134582 2.477775605907281 Z" fill="#193b29" transform="matrix(1,0,0,1,0,0)" fill-rule="nonzero"></path></g></g></g><defs><clipPath id="SvgjsClipPath1213"><path d=" M -4.963306294501176 -0.08513330814428177 h 4.563306294501175 v 3.6587041162885634 h -4.563306294501175 Z"></path></clipPath><clipPath id="SvgjsClipPath1212064dc61b-d60a-4146-95ae-ca182a4f42a7"><path d=" M -4.963306294501176 -0.08513330814428217 L -0.40000000000000036 -0.08513330814428217 L -0.40000000000000036 3.5735708081442814 L -4.963306294501176 3.5735708081442814 Z"></path></clipPath><clipPath id="a6edd02f7-9bef-4277-8fd3-28ca84d7dbf9064dc61b-d60a-4146-95ae-ca182a4f42a7"><path d=" M -4.963306294501176 3.5735708081442814 L -0.4000212845654181 3.5735708081442814 L -0.4000212845654181 -0.08512416138399177 L -4.963306294501176 -0.08512416138399177 Z"></path></clipPath></defs></svg>